<svg width="11" height="13" viewBox="0 0 11 13" fill="none" xmlns="http://www.w3.org/2000/svg">
<path d="M5.5 6.5C4.8125 6.5 4.25 5.9375 4.25 5.25C4.25 4.5625 4.8125 4 5.5 4C6.1875 4 6.75 4.5625 6.75 5.25C6.75 5.9375 6.1875 6.5 5.5 6.5ZM9.25 5.375C9.25 3.10625 7.59375 1.5 5.5 1.5C3.40625 1.5 1.75 3.10625 1.75 5.375C1.75 6.8375 2.96875 8.775 5.5 11.0875C8.03125 8.775 9.25 6.8375 9.25 5.375ZM5.5 0.25C8.125 0.25 10.5 2.2625 10.5 5.375C10.5 7.45 8.83125 9.90625 5.5 12.75C2.16875 9.90625 0.5 7.45 0.5 5.375C0.5 2.2625 2.875 0.25 5.5 0.25Z" fill="#323232"/>
</svg>
