<svg width="30" height="32" viewBox="0 0 30 32" fill="#504589" xmlns="http://www.w3.org/2000/svg">
<path d="M26.6875 10.6875H19.25V3.25C19.25 2.40462 18.9142 1.59387 18.3164 0.996097C17.7186 0.398325 16.9079 0.0625 16.0625 0.0625H3.3125C2.46712 0.0625 1.65637 0.398325 1.0586 0.996097C0.460825 1.59387 0.125 2.40462 0.125 3.25V30.875C0.125 31.1568 0.236942 31.427 0.436199 31.6263C0.635456 31.8256 0.905707 31.9375 1.1875 31.9375H8.09375C8.23465 31.9375 8.36977 31.8815 8.4694 31.7819C8.56903 31.6823 8.625 31.5471 8.625 31.4062V26.6549C8.625 26.0831 9.06461 25.5924 9.63637 25.5638C9.78003 25.5569 9.9236 25.5792 10.0584 25.6294C10.1932 25.6796 10.3163 25.7567 10.4205 25.8559C10.5246 25.9551 10.6075 26.0744 10.6641 26.2066C10.7208 26.3388 10.75 26.4812 10.75 26.625V31.4062C10.75 31.5471 10.806 31.6823 10.9056 31.7819C11.0052 31.8815 11.1404 31.9375 11.2812 31.9375H28.8125C29.0943 31.9375 29.3645 31.8256 29.5638 31.6263C29.7631 31.427 29.875 31.1568 29.875 30.875V13.875C29.875 13.0296 29.5392 12.2189 28.9414 11.6211C28.3436 11.0233 27.5329 10.6875 26.6875 10.6875ZM4.51312 27.6789C4.29307 27.7076 4.06953 27.6668 3.87388 27.5621C3.67823 27.4573 3.52028 27.2939 3.42221 27.0949C3.32414 26.8958 3.29087 26.671 3.32707 26.452C3.36326 26.2331 3.46711 26.031 3.62404 25.874C3.78096 25.7171 3.98309 25.6133 4.20204 25.5771C4.42099 25.5409 4.64578 25.5741 4.84486 25.6722C5.04394 25.7703 5.20732 25.9282 5.31206 26.1239C5.4168 26.3195 5.45765 26.5431 5.42887 26.7631C5.3985 26.9953 5.29225 27.211 5.12664 27.3766C4.96103 27.5422 4.74535 27.6485 4.51312 27.6789ZM4.51312 22.3664C4.29307 22.3951 4.06953 22.3543 3.87388 22.2496C3.67823 22.1448 3.52028 21.9814 3.42221 21.7824C3.32414 21.5833 3.29087 21.3585 3.32707 21.1395C3.36326 20.9206 3.46711 20.7185 3.62404 20.5615C3.78096 20.4046 3.98309 20.3008 4.20204 20.2646C4.42099 20.2284 4.64578 20.2616 4.84486 20.3597C5.04394 20.4578 5.20732 20.6157 5.31206 20.8114C5.4168 21.007 5.45765 21.2306 5.42887 21.4506C5.3985 21.6828 5.29225 21.8985 5.12664 22.0641C4.96103 22.2297 4.74535 22.336 4.51312 22.3664ZM4.51312 17.0539C4.29307 17.0826 4.06953 17.0418 3.87388 16.9371C3.67823 16.8323 3.52028 16.6689 3.42221 16.4699C3.32414 16.2708 3.29087 16.046 3.32707 15.827C3.36326 15.6081 3.46711 15.406 3.62404 15.249C3.78096 15.0921 3.98309 14.9883 4.20204 14.9521C4.42099 14.9159 4.64578 14.9491 4.84486 15.0472C5.04394 15.1453 5.20732 15.3032 5.31206 15.4989C5.4168 15.6945 5.45765 15.9181 5.42887 16.1381C5.3985 16.3703 5.29225 16.586 5.12664 16.7516C4.96103 16.9172 4.74535 17.0235 4.51312 17.0539ZM4.51312 11.7414C4.29307 11.7701 4.06953 11.7293 3.87388 11.6246C3.67823 11.5198 3.52028 11.3564 3.42221 11.1574C3.32414 10.9583 3.29087 10.7335 3.32707 10.5145C3.36326 10.2956 3.46711 10.0935 3.62404 9.93654C3.78096 9.77961 3.98309 9.67577 4.20204 9.63957C4.42099 9.60337 4.64578 9.63664 4.84486 9.73471C5.04394 9.83278 5.20732 9.99073 5.31206 10.1864C5.4168 10.382 5.45765 10.6056 5.42887 10.8256C5.3985 11.0578 5.29225 11.2735 5.12664 11.4391C4.96103 11.6047 4.74535 11.711 4.51312 11.7414ZM4.51312 6.42887C4.29307 6.45765 4.06953 6.4168 3.87388 6.31206C3.67823 6.20732 3.52028 6.04394 3.42221 5.84486C3.32414 5.64578 3.29087 5.42099 3.32707 5.20204C3.36326 4.98309 3.46711 4.78096 3.62404 4.62404C3.78096 4.46711 3.98309 4.36326 4.20204 4.32707C4.42099 4.29087 4.64578 4.32414 4.84486 4.42221C5.04394 4.52028 5.20732 4.67823 5.31206 4.87388C5.4168 5.06953 5.45765 5.29307 5.42887 5.51312C5.3985 5.74535 5.29225 5.96103 5.12664 6.12664C4.96103 6.29225 4.74535 6.3985 4.51312 6.42887ZM9.82563 22.3664C9.60557 22.3951 9.38203 22.3543 9.18638 22.2496C8.99073 22.1448 8.83278 21.9814 8.73471 21.7824C8.63664 21.5833 8.60337 21.3585 8.63957 21.1395C8.67577 20.9206 8.77961 20.7185 8.93654 20.5615C9.09346 20.4046 9.29559 20.3008 9.51454 20.2646C9.73349 20.2284 9.95828 20.2616 10.1574 20.3597C10.3564 20.4578 10.5198 20.6157 10.6246 20.8114C10.7293 21.007 10.7701 21.2306 10.7414 21.4506C10.711 21.6828 10.6047 21.8985 10.4391 22.0641C10.2735 22.2297 10.0578 22.336 9.82563 22.3664ZM9.82563 17.0539C9.60557 17.0826 9.38203 17.0418 9.18638 16.9371C8.99073 16.8323 8.83278 16.6689 8.73471 16.4699C8.63664 16.2708 8.60337 16.046 8.63957 15.827C8.67577 15.6081 8.77961 15.406 8.93654 15.249C9.09346 15.0921 9.29559 14.9883 9.51454 14.9521C9.73349 14.9159 9.95828 14.9491 10.1574 15.0472C10.3564 15.1453 10.5198 15.3032 10.6246 15.4989C10.7293 15.6945 10.7701 15.9181 10.7414 16.1381C10.711 16.3703 10.6047 16.586 10.4391 16.7516C10.2735 16.9172 10.0578 17.0235 9.82563 17.0539ZM9.82563 11.7414C9.60557 11.7701 9.38203 11.7293 9.18638 11.6246C8.99073 11.5198 8.83278 11.3564 8.73471 11.1574C8.63664 10.9583 8.60337 10.7335 8.63957 10.5145C8.67577 10.2956 8.77961 10.0935 8.93654 9.93654C9.09346 9.77961 9.29559 9.67577 9.51454 9.63957C9.73349 9.60337 9.95828 9.63664 10.1574 9.73471C10.3564 9.83278 10.5198 9.99073 10.6246 10.1864C10.7293 10.382 10.7701 10.6056 10.7414 10.8256C10.711 11.0578 10.6047 11.2735 10.4391 11.4391C10.2735 11.6047 10.0578 11.711 9.82563 11.7414ZM9.82563 6.42887C9.60557 6.45765 9.38203 6.4168 9.18638 6.31206C8.99073 6.20732 8.83278 6.04394 8.73471 5.84486C8.63664 5.64578 8.60337 5.42099 8.63957 5.20204C8.67577 4.98309 8.77961 4.78096 8.93654 4.62404C9.09346 4.46711 9.29559 4.36326 9.51454 4.32707C9.73349 4.29087 9.95828 4.32414 10.1574 4.42221C10.3564 4.52028 10.5198 4.67823 10.6246 4.87388C10.7293 5.06953 10.7701 5.29307 10.7414 5.51312C10.711 5.74535 10.6047 5.96103 10.4391 6.12664C10.2735 6.29225 10.0578 6.3985 9.82563 6.42887ZM15.1381 27.6789C14.9181 27.7076 14.6945 27.6668 14.4989 27.5621C14.3032 27.4573 14.1453 27.2939 14.0472 27.0949C13.9491 26.8958 13.9159 26.671 13.9521 26.452C13.9883 26.2331 14.0921 26.031 14.249 25.874C14.406 25.7171 14.6081 25.6133 14.827 25.5771C15.046 25.5409 15.2708 25.5741 15.4699 25.6722C15.6689 25.7703 15.8323 25.9282 15.9371 26.1239C16.0418 26.3195 16.0826 26.5431 16.0539 26.7631C16.0235 26.9953 15.9172 27.211 15.7516 27.3766C15.586 27.5422 15.3703 27.6485 15.1381 27.6789ZM15.1381 22.3664C14.9181 22.3951 14.6945 22.3543 14.4989 22.2496C14.3032 22.1448 14.1453 21.9814 14.0472 21.7824C13.9491 21.5833 13.9159 21.3585 13.9521 21.1395C13.9883 20.9206 14.0921 20.7185 14.249 20.5615C14.406 20.4046 14.6081 20.3008 14.827 20.2646C15.046 20.2284 15.2708 20.2616 15.4699 20.3597C15.6689 20.4578 15.8323 20.6157 15.9371 20.8114C16.0418 21.007 16.0826 21.2306 16.0539 21.4506C16.0235 21.6828 15.9172 21.8985 15.7516 22.0641C15.586 22.2297 15.3703 22.336 15.1381 22.3664ZM15.1381 17.0539C14.9181 17.0826 14.6945 17.0418 14.4989 16.9371C14.3032 16.8323 14.1453 16.6689 14.0472 16.4699C13.9491 16.2708 13.9159 16.046 13.9521 15.827C13.9883 15.6081 14.0921 15.406 14.249 15.249C14.406 15.0921 14.6081 14.9883 14.827 14.9521C15.046 14.9159 15.2708 14.9491 15.4699 15.0472C15.6689 15.1453 15.8323 15.3032 15.9371 15.4989C16.0418 15.6945 16.0826 15.9181 16.0539 16.1381C16.0235 16.3703 15.9172 16.586 15.7516 16.7516C15.586 16.9172 15.3703 17.0235 15.1381 17.0539ZM15.1381 11.7414C14.9181 11.7701 14.6945 11.7293 14.4989 11.6246C14.3032 11.5198 14.1453 11.3564 14.0472 11.1574C13.9491 10.9583 13.9159 10.7335 13.9521 10.5145C13.9883 10.2956 14.0921 10.0935 14.249 9.93654C14.406 9.77961 14.6081 9.67577 14.827 9.63957C15.046 9.60337 15.2708 9.63664 15.4699 9.73471C15.6689 9.83278 15.8323 9.99073 15.9371 10.1864C16.0418 10.382 16.0826 10.6056 16.0539 10.8256C16.0235 11.0578 15.9172 11.2735 15.7516 11.4391C15.586 11.6047 15.3703 11.711 15.1381 11.7414ZM15.1381 6.42887C14.9181 6.45765 14.6945 6.4168 14.4989 6.31206C14.3032 6.20732 14.1453 6.04394 14.0472 5.84486C13.9491 5.64578 13.9159 5.42099 13.9521 5.20204C13.9883 4.98309 14.0921 4.78096 14.249 4.62404C14.406 4.46711 14.6081 4.36326 14.827 4.32707C15.046 4.29087 15.2708 4.32414 15.4699 4.42221C15.6689 4.52028 15.8323 4.67823 15.9371 4.87388C16.0418 5.06953 16.0826 5.29307 16.0539 5.51312C16.0235 5.74535 15.9172 5.96103 15.7516 6.12664C15.586 6.29225 15.3703 6.3985 15.1381 6.42887ZM27.4844 29.8125H19.25V12.8125H26.6875C26.9693 12.8125 27.2395 12.9244 27.4388 13.1237C27.6381 13.323 27.75 13.5932 27.75 13.875V29.5469C27.75 29.6173 27.722 29.6849 27.6722 29.7347C27.6224 29.7845 27.5548 29.8125 27.4844 29.8125Z" />
<path d="M24.5625 25.5625C24.3524 25.5625 24.1469 25.6248 23.9722 25.7416C23.7975 25.8583 23.6613 26.0243 23.5809 26.2184C23.5005 26.4126 23.4794 26.6262 23.5204 26.8323C23.5614 27.0384 23.6626 27.2277 23.8112 27.3763C23.9598 27.5249 24.1491 27.6261 24.3552 27.6671C24.5613 27.7081 24.775 27.6871 24.9691 27.6066C25.1633 27.5262 25.3292 27.39 25.4459 27.2153C25.5627 27.0406 25.625 26.8352 25.625 26.625C25.625 26.3432 25.5131 26.073 25.3138 25.8737C25.1146 25.6745 24.8443 25.5625 24.5625 25.5625ZM24.5625 20.25C24.3524 20.25 24.1469 20.3123 23.9722 20.4291C23.7975 20.5458 23.6613 20.7118 23.5809 20.9059C23.5005 21.1001 23.4794 21.3137 23.5204 21.5198C23.5614 21.7259 23.6626 21.9152 23.8112 22.0638C23.9598 22.2124 24.1491 22.3136 24.3552 22.3546C24.5613 22.3956 24.775 22.3745 24.9691 22.2941C25.1633 22.2137 25.3292 22.0775 25.4459 21.9028C25.5627 21.7281 25.625 21.5227 25.625 21.3125C25.625 21.0307 25.5131 20.7605 25.3138 20.5612C25.1146 20.3619 24.8443 20.25 24.5625 20.25ZM24.5625 14.9375C24.3524 14.9375 24.1469 14.9998 23.9722 15.1166C23.7975 15.2333 23.6613 15.3993 23.5809 15.5934C23.5005 15.7875 23.4794 16.0012 23.5204 16.2073C23.5614 16.4134 23.6626 16.6027 23.8112 16.7513C23.9598 16.8999 24.1491 17.0011 24.3552 17.0421C24.5613 17.0831 24.775 17.062 24.9691 16.9816C25.1633 16.9012 25.3292 16.765 25.4459 16.5903C25.5627 16.4156 25.625 16.2101 25.625 16C25.625 15.7182 25.5131 15.448 25.3138 15.2487C25.1146 15.0494 24.8443 14.9375 24.5625 14.9375ZM20.3125 25.5625C20.1024 25.5625 19.8969 25.6248 19.7222 25.7416C19.5475 25.8583 19.4113 26.0243 19.3309 26.2184C19.2505 26.4126 19.2294 26.6262 19.2704 26.8323C19.3114 27.0384 19.4126 27.2277 19.5612 27.3763C19.7098 27.5249 19.8991 27.6261 20.1052 27.6671C20.3113 27.7081 20.525 27.6871 20.7191 27.6066C20.9132 27.5262 21.0792 27.39 21.1959 27.2153C21.3127 27.0406 21.375 26.8352 21.375 26.625C21.375 26.3432 21.2631 26.073 21.0638 25.8737C20.8645 25.6745 20.5943 25.5625 20.3125 25.5625ZM20.3125 20.25C20.1024 20.25 19.8969 20.3123 19.7222 20.4291C19.5475 20.5458 19.4113 20.7118 19.3309 20.9059C19.2505 21.1001 19.2294 21.3137 19.2704 21.5198C19.3114 21.7259 19.4126 21.9152 19.5612 22.0638C19.7098 22.2124 19.8991 22.3136 20.1052 22.3546C20.3113 22.3956 20.525 22.3745 20.7191 22.2941C20.9132 22.2137 21.0792 22.0775 21.1959 21.9028C21.3127 21.7281 21.375 21.5227 21.375 21.3125C21.375 21.0307 21.2631 20.7605 21.0638 20.5612C20.8645 20.3619 20.5943 20.25 20.3125 20.25ZM20.3125 14.9375C20.1024 14.9375 19.8969 14.9998 19.7222 15.1166C19.5475 15.2333 19.4113 15.3993 19.3309 15.5934C19.2505 15.7875 19.2294 16.0012 19.2704 16.2073C19.3114 16.4134 19.4126 16.6027 19.5612 16.7513C19.7098 16.8999 19.8991 17.0011 20.1052 17.0421C20.3113 17.0831 20.525 17.062 20.7191 16.9816C20.9132 16.9012 21.0792 16.765 21.1959 16.5903C21.3127 16.4156 21.375 16.2101 21.375 16C21.375 15.7182 21.2631 15.448 21.0638 15.2487C20.8645 15.0494 20.5943 14.9375 20.3125 14.9375Z" />
</svg>
