<svg width="24" height="32" viewBox="0 0 24 32" fill="none" xmlns="http://www.w3.org/2000/svg">
<path d="M19.4375 1.125H4.5625C2.80209 1.125 1.375 2.55209 1.375 4.3125V27.6875C1.375 29.4479 2.80209 30.875 4.5625 30.875H19.4375C21.1979 30.875 22.625 29.4479 22.625 27.6875V4.3125C22.625 2.55209 21.1979 1.125 19.4375 1.125Z" stroke="#A7A9AB" stroke-width="2" stroke-linejoin="round"/>
<path d="M8.8125 4.3125H15.1875" stroke="#A7A9AB" stroke-width="2" stroke-linecap="round" stroke-linejoin="round"/>
<path d="M17.1452 17.8932C16.8946 17.6263 16.591 17.4145 16.254 17.2714C15.9169 17.1284 15.5537 17.0572 15.1875 17.0625C14.4172 17.0625 13.7206 17.3553 13.2259 17.8879C12.7311 18.4205 12.4821 19.1576 12.5392 19.9465C12.6528 21.5057 13.8408 22.7734 15.1875 22.7734C16.5342 22.7734 17.7203 21.5057 17.8351 19.9479C17.8936 19.1656 17.6479 18.4358 17.1452 17.8932ZM19.6826 28.75H10.6925C10.5754 28.7519 10.4594 28.728 10.3526 28.6802C10.2458 28.6323 10.1508 28.5616 10.0742 28.4731C9.99126 28.3737 9.9317 28.2569 9.89998 28.1314C9.86825 28.0059 9.86517 27.8748 9.89095 27.7479C10.1068 26.5818 10.7795 25.6023 11.8367 24.915C12.7756 24.3048 13.9656 23.9687 15.1875 23.9687C16.4094 23.9687 17.5994 24.3048 18.5384 24.915C19.5956 25.6023 20.2683 26.5818 20.4841 27.7479C20.5099 27.8748 20.5068 28.0059 20.4751 28.1314C20.4433 28.2569 20.3838 28.3737 20.3008 28.4731C20.2243 28.5616 20.1293 28.6323 20.0224 28.6802C19.9156 28.728 19.7996 28.7519 19.6826 28.75Z" fill="#A7A9AB"/>
</svg>
