<svg width="34" height="18" viewBox="0 0 34 18" fill="#504589" xmlns="http://www.w3.org/2000/svg">
<path d="M17 10.0625C19.3092 10.0625 21.3492 10.615 23.0067 11.3375C24.5367 12.0175 25.5 13.5475 25.5 15.205V17.5H8.5V15.2192C8.5 13.5475 9.46333 12.0175 10.9933 11.3517C12.6508 10.615 14.6908 10.0625 17 10.0625ZM5.66667 10.4167C7.225 10.4167 8.5 9.14167 8.5 7.58333C8.5 6.025 7.225 4.75 5.66667 4.75C4.10833 4.75 2.83333 6.025 2.83333 7.58333C2.83333 9.14167 4.10833 10.4167 5.66667 10.4167ZM7.2675 11.975C6.74333 11.89 6.21917 11.8333 5.66667 11.8333C4.26417 11.8333 2.9325 12.1308 1.72833 12.655C0.68 13.1083 0 14.1283 0 15.2758V17.5H6.375V15.2192C6.375 14.0433 6.70083 12.9383 7.2675 11.975ZM28.3333 10.4167C29.8917 10.4167 31.1667 9.14167 31.1667 7.58333C31.1667 6.025 29.8917 4.75 28.3333 4.75C26.775 4.75 25.5 6.025 25.5 7.58333C25.5 9.14167 26.775 10.4167 28.3333 10.4167ZM34 15.2758C34 14.1283 33.32 13.1083 32.2717 12.655C31.0675 12.1308 29.7358 11.8333 28.3333 11.8333C27.7808 11.8333 27.2567 11.89 26.7325 11.975C27.2992 12.9383 27.625 14.0433 27.625 15.2192V17.5H34V15.2758ZM17 0.5C19.3517 0.5 21.25 2.39833 21.25 4.75C21.25 7.10167 19.3517 9 17 9C14.6483 9 12.75 7.10167 12.75 4.75C12.75 2.39833 14.6483 0.5 17 0.5Z" />
</svg>
