<svg width="30" height="34" viewBox="0 0 30 34" fill="none" xmlns="http://www.w3.org/2000/svg">
<path d="M26.3335 0H3.66683V2.83333H26.3335V0ZM3.66683 34H26.3335V31.1667H3.66683V34ZM26.3335 5.66667H3.66683C2.1085 5.66667 0.833496 6.94167 0.833496 8.5V25.5C0.833496 27.0583 2.1085 28.3333 3.66683 28.3333H26.3335C27.8918 28.3333 29.1668 27.0583 29.1668 25.5V8.5C29.1668 6.94167 27.8918 5.66667 26.3335 5.66667ZM15.0002 9.5625C16.7568 9.5625 18.1877 10.9933 18.1877 12.75C18.1877 14.5067 16.7568 15.9375 15.0002 15.9375C13.2435 15.9375 11.8127 14.5067 11.8127 12.75C11.8127 10.9933 13.2435 9.5625 15.0002 9.5625ZM22.0835 24.0833H7.91683V21.9583C7.91683 19.5925 12.6343 18.4167 15.0002 18.4167C17.366 18.4167 22.0835 19.5925 22.0835 21.9583V24.0833Z" fill="#A7A9AB"/>
</svg>
