<svg width="32" height="31" viewBox="0 0 32 31" fill="#504589" xmlns="http://www.w3.org/2000/svg">
<path d="M3.25002 11.75H0.416687V27.3333C0.416687 28.9058 1.67752 30.1667 3.25002 30.1667H27.3334V27.3333H3.25002V11.75Z" />
<path d="M24.5 6.08332V3.24999C24.5 1.69166 23.225 0.416656 21.6667 0.416656H16C14.4417 0.416656 13.1667 1.69166 13.1667 3.24999V6.08332H6.08337V21.6667C6.08337 23.225 7.35837 24.5 8.91671 24.5H28.75C30.3084 24.5 31.5834 23.225 31.5834 21.6667V6.08332H24.5ZM16 3.24999H21.6667V6.08332H16V3.24999ZM28.75 21.6667H8.91671V8.91666H28.75V21.6667Z" />
</svg>
