<svg width="32" height="32" viewBox="0 0 32 32" fill="none" xmlns="http://www.w3.org/2000/svg">
<path d="M23.308 8.69532C22.7556 8.1427 22.4321 7.4019 22.4023 6.62107C22.3725 5.84024 22.6386 5.07695 23.1473 4.48383C23.1894 4.43451 23.2113 4.3711 23.2086 4.30632C23.2058 4.24154 23.1787 4.18018 23.1327 4.13454L20.2022 1.20071C20.1538 1.15229 20.0881 1.12509 20.0196 1.12509C19.9511 1.12509 19.8854 1.15229 19.837 1.20071L15.1659 5.87173C14.9936 6.04402 14.8638 6.25411 14.7868 6.48532V6.48532C14.71 6.71706 14.5804 6.92774 14.408 7.10065C14.2357 7.27355 14.0255 7.40392 13.794 7.48141V7.48141C13.5626 7.55851 13.3523 7.68832 13.1797 7.86059L1.20071 19.837C1.15229 19.8854 1.12509 19.9511 1.12509 20.0196C1.12509 20.0881 1.15229 20.1538 1.20071 20.2022L4.13122 23.1327C4.17686 23.1788 4.23822 23.2058 4.303 23.2086C4.36778 23.2113 4.43119 23.1894 4.48051 23.1473C5.0735 22.638 5.83696 22.3715 6.61806 22.4012C7.39916 22.4308 8.14024 22.7543 8.69296 23.3071C9.24568 23.8598 9.56923 24.6009 9.59885 25.382C9.62847 26.1631 9.36197 26.9265 8.8527 27.5195C8.81063 27.5688 8.78875 27.6322 8.79146 27.697C8.79417 27.7618 8.82126 27.8232 8.86731 27.8688L11.7978 30.7993C11.8463 30.8477 11.9119 30.8749 11.9804 30.8749C12.0489 30.8749 12.1146 30.8477 12.1631 30.7993L24.1427 18.8203C24.315 18.6477 24.4448 18.4374 24.5219 18.206V18.206C24.5986 17.9743 24.7283 17.7636 24.9006 17.5907C25.073 17.4178 25.2832 17.2874 25.5147 17.2099V17.2099C25.7459 17.1329 25.956 17.0031 26.1283 16.8308L30.7993 12.1597C30.8477 12.1113 30.8749 12.0456 30.8749 11.9771C30.8749 11.9086 30.8477 11.8429 30.7993 11.7945L27.8688 8.86399C27.8232 8.81794 27.7618 8.79085 27.697 8.78814C27.6322 8.78543 27.5688 8.80731 27.5195 8.84938C26.9272 9.35897 26.1644 9.62619 25.3836 9.59763C24.6028 9.56907 23.8615 9.24682 23.308 8.69532V8.69532Z" stroke="#A7A9AB" stroke-width="2" stroke-miterlimit="10"/>
<path d="M24.7703 17.4616L23.6739 16.3652M15.6348 8.32609L14.5384 7.22972L15.6348 8.32609ZM18.558 11.2493L17.8269 10.5188L18.558 11.2493ZM21.4812 14.1732L20.7507 13.442L21.4812 14.1732Z" stroke="#A7A9AB" stroke-width="2" stroke-miterlimit="10" stroke-linecap="round"/>
</svg>
