<svg width="30" height="30" viewBox="0 0 30 30" fill="none" xmlns="http://www.w3.org/2000/svg">
<path d="M11.4585 7.20831V11.4583H7.2085V7.20831H11.4585ZM13.5835 5.08331H5.0835V13.5833H13.5835V5.08331ZM11.4585 18.5416V22.7916H7.2085V18.5416H11.4585ZM13.5835 16.4166H5.0835V24.9166H13.5835V16.4166ZM22.7918 7.20831V11.4583H18.5418V7.20831H22.7918ZM24.9168 5.08331H16.4168V13.5833H24.9168V5.08331ZM16.4168 16.4166H18.5418V18.5416H16.4168V16.4166ZM18.5418 18.5416H20.6668V20.6666H18.5418V18.5416ZM20.6668 16.4166H22.7918V18.5416H20.6668V16.4166ZM16.4168 20.6666H18.5418V22.7916H16.4168V20.6666ZM18.5418 22.7916H20.6668V24.9166H18.5418V22.7916ZM20.6668 20.6666H22.7918V22.7916H20.6668V20.6666ZM22.7918 18.5416H24.9168V20.6666H22.7918V18.5416ZM22.7918 22.7916H24.9168V24.9166H22.7918V22.7916ZM29.1668 7.91665H26.3335V3.66665H22.0835V0.833313H29.1668V7.91665ZM29.1668 29.1666V22.0833H26.3335V26.3333H22.0835V29.1666H29.1668ZM0.833496 29.1666H7.91683V26.3333H3.66683V22.0833H0.833496V29.1666ZM0.833496 0.833313V7.91665H3.66683V3.66665H7.91683V0.833313H0.833496Z" fill="#A7A9AB"/>
</svg>
