<svg width="27" height="30" viewBox="0 0 27 30" fill="#504589" xmlns="http://www.w3.org/2000/svg">
<path d="M23.5 25.625V2.78125C23.5 2.43243 23.4313 2.08702 23.2978 1.76475C23.1643 1.44248 22.9687 1.14965 22.722 0.902998C22.4753 0.656342 22.1825 0.460684 21.8603 0.327195C21.538 0.193706 21.1926 0.125 20.8438 0.125H2.78125C2.07677 0.125 1.40114 0.404854 0.902998 0.902998C0.404854 1.40114 0.125 2.07677 0.125 2.78125V26.1562C0.125 27.1425 0.516796 28.0884 1.2142 28.7858C1.9116 29.4832 2.85748 29.875 3.84375 29.875H26.6111C26.6212 29.8751 26.6312 29.8732 26.6405 29.8694C26.6498 29.8656 26.6582 29.8599 26.6653 29.8528C26.6724 29.8457 26.6781 29.8373 26.6819 29.828C26.6857 29.8187 26.6876 29.8087 26.6875 29.7986C26.6875 29.7819 26.6819 29.7657 26.6717 29.7525C26.6615 29.7393 26.6472 29.7298 26.6311 29.7256C25.7323 29.479 24.9392 28.9444 24.3736 28.2036C23.808 27.4629 23.5011 26.557 23.5 25.625ZM4.375 6.5C4.375 6.21821 4.48694 5.94796 4.6862 5.7487C4.88546 5.54944 5.15571 5.4375 5.4375 5.4375H9.6875C9.96929 5.4375 10.2395 5.54944 10.4388 5.7487C10.6381 5.94796 10.75 6.21821 10.75 6.5V10.75C10.75 11.0318 10.6381 11.302 10.4388 11.5013C10.2395 11.7006 9.96929 11.8125 9.6875 11.8125H5.4375C5.15571 11.8125 4.88546 11.7006 4.6862 11.5013C4.48694 11.302 4.375 11.0318 4.375 10.75V6.5ZM18.1875 24.5625H5.46738C4.89562 24.5625 4.40488 24.1229 4.37633 23.5511C4.36941 23.4075 4.39172 23.2639 4.44193 23.1291C4.49213 22.9943 4.56918 22.8712 4.6684 22.767C4.76762 22.6629 4.88694 22.58 5.01914 22.5234C5.15135 22.4667 5.29367 22.4375 5.4375 22.4375H18.1576C18.7294 22.4375 19.2201 22.8771 19.2487 23.4489C19.2556 23.5925 19.2333 23.7361 19.1831 23.8709C19.1329 24.0057 19.0558 24.1288 18.9566 24.233C18.8574 24.3371 18.7381 24.42 18.6059 24.4766C18.4737 24.5333 18.3313 24.5625 18.1875 24.5625ZM18.1875 20.3125H5.46738C4.89562 20.3125 4.40488 19.8729 4.37633 19.3011C4.36941 19.1575 4.39172 19.0139 4.44193 18.8791C4.49213 18.7443 4.56918 18.6212 4.6684 18.517C4.76762 18.4129 4.88694 18.33 5.01914 18.2734C5.15135 18.2167 5.29367 18.1875 5.4375 18.1875H18.1576C18.7294 18.1875 19.2201 18.6271 19.2487 19.1989C19.2556 19.3425 19.2333 19.4861 19.1831 19.6209C19.1329 19.7557 19.0558 19.8788 18.9566 19.983C18.8574 20.0871 18.7381 20.17 18.6059 20.2266C18.4737 20.2833 18.3313 20.3125 18.1875 20.3125ZM18.1875 16.0625H5.46738C4.89562 16.0625 4.40488 15.6229 4.37633 15.0511C4.36941 14.9075 4.39172 14.7639 4.44193 14.6291C4.49213 14.4943 4.56918 14.3712 4.6684 14.267C4.76762 14.1629 4.88694 14.08 5.01914 14.0234C5.15135 13.9667 5.29367 13.9375 5.4375 13.9375H18.1576C18.7294 13.9375 19.2201 14.3771 19.2487 14.9489C19.2556 15.0925 19.2333 15.2361 19.1831 15.3709C19.1329 15.5057 19.0558 15.6288 18.9566 15.733C18.8574 15.8371 18.7381 15.92 18.6059 15.9766C18.4737 16.0333 18.3313 16.0625 18.1875 16.0625ZM18.1875 11.8125H13.9674C13.3956 11.8125 12.9049 11.3729 12.8763 10.8011C12.8694 10.6575 12.8917 10.5139 12.9419 10.3791C12.9921 10.2443 13.0692 10.1212 13.1684 10.017C13.2676 9.91291 13.3869 9.83002 13.5191 9.77337C13.6513 9.71673 13.7937 9.68751 13.9375 9.6875H18.1576C18.7294 9.6875 19.2201 10.1271 19.2487 10.6989C19.2556 10.8425 19.2333 10.9861 19.1831 11.1209C19.1329 11.2557 19.0558 11.3788 18.9566 11.483C18.8574 11.5871 18.7381 11.67 18.6059 11.7266C18.4737 11.7833 18.3313 11.8125 18.1875 11.8125ZM18.1875 7.5625H13.9674C13.3956 7.5625 12.9049 7.12289 12.8763 6.55113C12.8694 6.40747 12.8917 6.2639 12.9419 6.12912C12.9921 5.99434 13.0692 5.87116 13.1684 5.76704C13.2676 5.66291 13.3869 5.58002 13.5191 5.52337C13.6513 5.46673 13.7937 5.43751 13.9375 5.4375H18.1576C18.7294 5.4375 19.2201 5.87711 19.2487 6.44887C19.2556 6.59253 19.2333 6.7361 19.1831 6.87088C19.1329 7.00566 19.0558 7.12884 18.9566 7.23296C18.8574 7.33709 18.7381 7.41998 18.6059 7.47663C18.4737 7.53327 18.3313 7.56249 18.1875 7.5625Z" />
</svg>
