<svg width="26" height="30" viewBox="0 0 26 30" fill="none" xmlns="http://www.w3.org/2000/svg">
<path d="M21.5 20.78C20.4233 20.78 19.46 21.205 18.7233 21.8708L8.6225 15.9916C8.69333 15.6658 8.75 15.34 8.75 15C8.75 14.66 8.69333 14.3341 8.6225 14.0083L18.61 8.18581C19.375 8.89415 20.3808 9.33331 21.5 9.33331C23.8517 9.33331 25.75 7.43498 25.75 5.08331C25.75 2.73165 23.8517 0.833313 21.5 0.833313C19.1483 0.833313 17.25 2.73165 17.25 5.08331C17.25 5.42331 17.3067 5.74915 17.3775 6.07498L7.39 11.8975C6.625 11.1891 5.61917 10.75 4.5 10.75C2.14833 10.75 0.25 12.6483 0.25 15C0.25 17.3516 2.14833 19.25 4.5 19.25C5.61917 19.25 6.625 18.8108 7.39 18.1025L17.4767 23.9958C17.4058 24.2933 17.3633 24.605 17.3633 24.9166C17.3633 27.1975 19.2192 29.0533 21.5 29.0533C23.7808 29.0533 25.6367 27.1975 25.6367 24.9166C25.6367 22.6358 23.7808 20.78 21.5 20.78Z" fill="#A7A9AB"/>
</svg>
