<svg width="32" height="30" viewBox="0 0 32 30" fill="none" xmlns="http://www.w3.org/2000/svg">
<path d="M18.125 28.8125V18.7188C18.125 18.2961 18.2929 17.8907 18.5918 17.5918C18.8907 17.2929 19.2961 17.125 19.7188 17.125H23.9688C24.3914 17.125 24.7968 17.2929 25.0957 17.5918C25.3946 17.8907 25.5625 18.2961 25.5625 18.7188V28.8125M28.75 27.75V13.9375V27.75ZM3.25 13.9375V27.75V13.9375ZM24.3984 1.1875H7.6016C6.15461 1.1875 4.84773 1.98438 4.28594 3.21023L1.41055 9.48828C0.442344 11.6007 2.05004 13.9939 4.54426 14.0703H4.67707C6.76223 14.0703 8.45227 12.3982 8.45227 10.6019C8.45227 12.3949 10.143 14.0703 12.2281 14.0703C14.3133 14.0703 16 12.5177 16 10.6019C16 12.3949 17.69 14.0703 19.7752 14.0703C21.8604 14.0703 23.5511 12.5177 23.5511 10.6019C23.5511 12.5177 25.2411 14.0703 27.3262 14.0703H27.4557C29.95 13.9926 31.5577 11.5993 30.5895 9.48828L27.7141 3.21023C27.1523 1.98438 25.8454 1.1875 24.3984 1.1875ZM1.125 28.8125H30.875H1.125ZM8.03125 17.125H13.3438C13.7664 17.125 14.1718 17.2929 14.4707 17.5918C14.7696 17.8907 14.9375 18.2961 14.9375 18.7188V24.5625H6.4375V18.7188C6.4375 18.2961 6.60541 17.8907 6.9043 17.5918C7.20318 17.2929 7.60856 17.125 8.03125 17.125Z" stroke="#A7A9AB" stroke-width="2" stroke-linecap="round" stroke-linejoin="round"/>
</svg>
