<svg width="32" height="30" viewBox="0 0 32 30" fill="none" xmlns="http://www.w3.org/2000/svg">
<path d="M9.625 20.3125V1.1875L11.75 2.25L13.875 1.1875L15.996 2.25L18.1456 1.1875L20.25 2.25L22.3611 1.1875L24.4814 2.25L26.625 1.1875L28.7507 2.25L30.875 1.1875V16.0625" stroke="#A7A9AB" stroke-width="2" stroke-linejoin="round"/>
<path d="M30.875 16.0625V23.5C30.875 24.909 30.3153 26.2602 29.319 27.2565C28.3227 28.2528 26.9714 28.8125 25.5625 28.8125V28.8125C24.1535 28.8125 22.8023 28.2528 21.806 27.2565C20.8097 26.2602 20.25 24.909 20.25 23.5V20.3125H2.18748C2.04761 20.3113 1.90889 20.3379 1.77942 20.3909C1.64995 20.4438 1.53233 20.522 1.43342 20.6209C1.3345 20.7198 1.25629 20.8375 1.20333 20.9669C1.15038 21.0964 1.12374 21.2351 1.12498 21.375C1.12498 25.625 1.57256 28.8125 6.43748 28.8125H25.5625" stroke="#A7A9AB" stroke-width="2" stroke-linejoin="round"/>
<path d="M18.125 12.875H26.625M13.875 7.5625H26.625H13.875Z" stroke="#A7A9AB" stroke-width="2" stroke-linecap="round" stroke-linejoin="round"/>
</svg>
