<svg width="24" height="24" viewBox="0 0 24 24" fill="none" xmlns="http://www.w3.org/2000/svg">
<path d="M8.84998 11.9967C8.84979 12.6198 9.03438 13.2289 9.38039 13.747C9.72641 14.2652 10.2183 14.669 10.7939 14.9076C11.3694 15.1462 12.0028 15.2087 12.6139 15.0872C13.225 14.9658 13.7864 14.6659 14.227 14.2254C14.6677 13.7849 14.9678 13.2236 15.0894 12.6125C15.211 12.0015 15.1487 11.3681 14.9103 10.7924C14.6719 10.2168 14.2682 9.72476 13.7501 9.37859C13.2321 9.03242 12.623 8.84766 12 8.84766C11.1654 8.84988 10.3656 9.18234 9.77538 9.7724C9.18515 10.3625 8.85245 11.1621 8.84998 11.9967Z" fill="#A7A9AB"/>
<path d="M22.3477 10.2089V10.2112C22.2708 9.75334 22.1612 9.30155 22.0195 8.85938H22.0144C22.1582 9.30371 22.269 9.75808 22.3458 10.2188C22.2687 9.75812 22.158 9.30378 22.0144 8.85938H14.73C15.623 9.65625 16.2 10.7423 16.2 12.0023C16.202 12.7407 16.0025 13.4657 15.623 14.0991L10.8281 22.4273C10.8284 22.4316 10.8284 22.4358 10.8281 22.44V22.4531V22.4409C11.2173 22.4825 11.6086 22.5022 12 22.5C12.3206 22.5 12.638 22.4817 12.9516 22.4531C13.4214 22.4107 13.8877 22.3364 14.3475 22.2309C19.0162 21.165 22.5 16.9875 22.5 11.9972C22.5001 11.3979 22.4491 10.7996 22.3477 10.2089Z" fill="#A7A9AB"/>
<path d="M12 16.1952C10.425 16.1952 9.11251 15.3557 8.37704 14.0957L3.5625 5.7679L3.55594 5.75665C2.51705 7.16317 1.84588 8.80687 1.60333 10.5386C1.36079 12.2702 1.55456 14.0351 2.16705 15.6729C2.77954 17.3107 3.79136 18.7696 5.11067 19.9172C6.42999 21.0648 8.01501 21.8648 9.72188 22.2445V22.2421L13.3636 15.9327C12.9282 16.1002 12.4665 16.1891 12 16.1952Z" fill="#A7A9AB"/>
<path d="M4.27937 4.90177L7.90515 11.1479C8.09338 10.1999 8.60426 9.34635 9.35085 8.73257C10.0974 8.11878 11.0336 7.78263 12.0002 7.7813H21.6175C21.2869 7.05485 20.8819 6.3646 20.4091 5.72161L20.4147 5.72536C20.8857 6.36718 21.2888 7.05619 21.6175 7.7813H21.6255C21.297 7.05402 20.8939 6.36281 20.4227 5.7188C20.4169 5.7152 20.4114 5.71112 20.4062 5.70661C19.4824 4.47157 18.2978 3.45528 16.9366 2.73005C15.5754 2.00481 14.0712 1.58845 12.5308 1.51058C10.9904 1.43271 9.45185 1.69524 8.02447 2.27951C6.59709 2.86377 5.316 3.75541 4.27234 4.89099L4.2789 4.90224L4.27937 4.90177Z" fill="#A7A9AB"/>
</svg>
