<svg width="36" height="36" viewBox="0 0 36 36" fill="none" xmlns="http://www.w3.org/2000/svg">
<circle cx="18" cy="18" r="18" fill="#504589"/>
<path d="M13.5 13.6876C13.5 13.6876 13.5675 12.1407 15.0722 10.9004C15.9656 10.164 17.0386 9.95069 18 9.93756C18.878 9.92678 19.6627 10.0754 20.1319 10.3041C20.9339 10.6969 22.5 11.6532 22.5 13.6876C22.5 15.8283 21.1322 16.7987 19.5773 17.8679C18.0225 18.9371 17.625 19.9857 17.625 21.1876" stroke="white" stroke-width="2" stroke-miterlimit="10" stroke-linecap="round"/>
<path d="M17.625 26.2495C18.4534 26.2495 19.125 25.5779 19.125 24.7495C19.125 23.9211 18.4534 23.2495 17.625 23.2495C16.7966 23.2495 16.125 23.9211 16.125 24.7495C16.125 25.5779 16.7966 26.2495 17.625 26.2495Z" fill="white"/>
</svg>
