<svg width="50" height="50" viewBox="0 0 50 50" fill="none" xmlns="http://www.w3.org/2000/svg">
<circle cx="25" cy="25" r="25" fill="#504589"/>
<path d="M32.4375 10.125H17.5625C15.8021 10.125 14.375 11.5521 14.375 13.3125V36.6875C14.375 38.4479 15.8021 39.875 17.5625 39.875H32.4375C34.1979 39.875 35.625 38.4479 35.625 36.6875V13.3125C35.625 11.5521 34.1979 10.125 32.4375 10.125Z" stroke="white" stroke-width="2" stroke-linejoin="round"/>
<path d="M21.8125 13.3125H28.1875" stroke="white" stroke-width="2" stroke-linecap="round" stroke-linejoin="round"/>
<path d="M30.1452 26.8932C29.8946 26.6263 29.591 26.4145 29.254 26.2714C28.9169 26.1284 28.5537 26.0572 28.1875 26.0625C27.4172 26.0625 26.7206 26.3553 26.2259 26.8879C25.7311 27.4205 25.4821 28.1576 25.5392 28.9465C25.6528 30.5057 26.8408 31.7734 28.1875 31.7734C29.5342 31.7734 30.7203 30.5057 30.8351 28.9479C30.8936 28.1656 30.6479 27.4358 30.1452 26.8932ZM32.6826 37.75H23.6925C23.5754 37.7519 23.4594 37.728 23.3526 37.6802C23.2458 37.6323 23.1508 37.5616 23.0742 37.4731C22.9913 37.3737 22.9317 37.2569 22.9 37.1314C22.8683 37.0059 22.8652 36.8748 22.8909 36.7479C23.1068 35.5818 23.7795 34.6023 24.8367 33.915C25.7756 33.3048 26.9656 32.9687 28.1875 32.9687C29.4094 32.9687 30.5994 33.3048 31.5384 33.915C32.5956 34.6023 33.2683 35.5818 33.4841 36.7479C33.5099 36.8748 33.5068 37.0059 33.4751 37.1314C33.4433 37.2569 33.3838 37.3737 33.3008 37.4731C33.2243 37.5616 33.1293 37.6323 33.0224 37.6802C32.9156 37.728 32.7996 37.7519 32.6826 37.75Z" fill="white"/>
</svg>
