<svg width="50" height="50" viewBox="0 0 50 50" fill="none" xmlns="http://www.w3.org/2000/svg">
<circle cx="25" cy="25" r="25" fill="#504589"/>
<path d="M30.6667 23.5833C33.0183 23.5833 34.9025 21.685 34.9025 19.3333C34.9025 16.9817 33.0183 15.0833 30.6667 15.0833C28.315 15.0833 26.4167 16.9817 26.4167 19.3333C26.4167 21.685 28.315 23.5833 30.6667 23.5833ZM19.3333 23.5833C21.685 23.5833 23.5692 21.685 23.5692 19.3333C23.5692 16.9817 21.685 15.0833 19.3333 15.0833C16.9817 15.0833 15.0833 16.9817 15.0833 19.3333C15.0833 21.685 16.9817 23.5833 19.3333 23.5833ZM19.3333 26.4167C16.0325 26.4167 9.41666 28.0742 9.41666 31.375V34.9167H29.25V31.375C29.25 28.0742 22.6342 26.4167 19.3333 26.4167ZM30.6667 26.4167C30.2558 26.4167 29.7883 26.445 29.2925 26.4875C30.9358 27.6775 32.0833 29.2783 32.0833 31.375V34.9167H40.5833V31.375C40.5833 28.0742 33.9675 26.4167 30.6667 26.4167Z" fill="white"/>
</svg>
