<svg width="50" height="50" viewBox="0 0 50 50" fill="none" xmlns="http://www.w3.org/2000/svg">
<circle cx="25" cy="25" r="25" fill="#504589"/>
<path d="M19.6875 36.6875C20.2743 36.6875 20.75 36.2118 20.75 35.625C20.75 35.0382 20.2743 34.5625 19.6875 34.5625C19.1007 34.5625 18.625 35.0382 18.625 35.625C18.625 36.2118 19.1007 36.6875 19.6875 36.6875Z" stroke="white" stroke-width="2" stroke-linecap="round" stroke-linejoin="round"/>
<path d="M34.5625 36.6875C35.1493 36.6875 35.625 36.2118 35.625 35.625C35.625 35.0382 35.1493 34.5625 34.5625 34.5625C33.9757 34.5625 33.5 35.0382 33.5 35.625C33.5 36.2118 33.9757 36.6875 34.5625 36.6875Z" stroke="white" stroke-width="2" stroke-linecap="round" stroke-linejoin="round"/>
<path d="M11.1875 13.3125H15.4375L18.625 31.375H35.625" stroke="white" stroke-width="2" stroke-linecap="round" stroke-linejoin="round"/>
<path d="M18.625 27.125H35.1894C35.3122 27.1251 35.4313 27.0826 35.5264 27.0047C35.6214 26.9269 35.6866 26.8185 35.7107 26.698L37.6232 17.1355C37.6386 17.0584 37.6367 16.9788 37.6177 16.9025C37.5986 16.8262 37.5629 16.7551 37.513 16.6943C37.4631 16.6335 37.4004 16.5846 37.3293 16.551C37.2582 16.5173 37.1805 16.4999 37.1019 16.5H16.5" stroke="white" stroke-width="2" stroke-linecap="round" stroke-linejoin="round"/>
</svg>
