<svg width="50" height="50" viewBox="0 0 50 50" fill="none" xmlns="http://www.w3.org/2000/svg">
<circle cx="25" cy="25" r="25" fill="#504589"/>
<path d="M32.308 17.6953C31.7556 17.1427 31.4321 16.4019 31.4023 15.6211C31.3725 14.8402 31.6386 14.0769 32.1473 13.4838C32.1894 13.4345 32.2113 13.3711 32.2086 13.3063C32.2058 13.2415 32.1787 13.1802 32.1327 13.1345L29.2022 10.2007C29.1538 10.1523 29.0881 10.1251 29.0196 10.1251C28.9511 10.1251 28.8854 10.1523 28.837 10.2007L24.1659 14.8717C23.9936 15.044 23.8638 15.2541 23.7868 15.4853V15.4853C23.71 15.7171 23.5804 15.9277 23.408 16.1006C23.2357 16.2735 23.0255 16.4039 22.794 16.4814V16.4814C22.5626 16.5585 22.3523 16.6883 22.1797 16.8606L10.2007 28.837C10.1523 28.8854 10.1251 28.9511 10.1251 29.0196C10.1251 29.0881 10.1523 29.1538 10.2007 29.2022L13.1312 32.1327C13.1769 32.1788 13.2382 32.2058 13.303 32.2086C13.3678 32.2113 13.4312 32.1894 13.4805 32.1473C14.0735 31.638 14.837 31.3715 15.6181 31.4012C16.3992 31.4308 17.1402 31.7543 17.693 32.3071C18.2457 32.8598 18.5692 33.6009 18.5989 34.382C18.6285 35.1631 18.362 35.9265 17.8527 36.5195C17.8106 36.5688 17.7888 36.6322 17.7915 36.697C17.7942 36.7618 17.8213 36.8232 17.8673 36.8688L20.7978 39.7993C20.8463 39.8477 20.9119 39.8749 20.9804 39.8749C21.0489 39.8749 21.1146 39.8477 21.1631 39.7993L33.1427 27.8203C33.315 27.6477 33.4448 27.4374 33.5219 27.206V27.206C33.5986 26.9743 33.7283 26.7636 33.9006 26.5907C34.073 26.4178 34.2832 26.2874 34.5147 26.2099V26.2099C34.7459 26.1329 34.956 26.0031 35.1283 25.8308L39.7993 21.1597C39.8477 21.1113 39.8749 21.0456 39.8749 20.9771C39.8749 20.9086 39.8477 20.8429 39.7993 20.7945L36.8688 17.864C36.8232 17.8179 36.7618 17.7909 36.697 17.7881C36.6322 17.7854 36.5688 17.8073 36.5195 17.8494C35.9272 18.359 35.1644 18.6262 34.3836 18.5976C33.6028 18.5691 32.8615 18.2468 32.308 17.6953V17.6953Z" stroke="white" stroke-width="2" stroke-miterlimit="10"/>
<path d="M33.7703 26.4616L32.6739 25.3652M24.6348 17.3261L23.5384 16.2297L24.6348 17.3261ZM27.558 20.2493L26.8269 19.5188L27.558 20.2493ZM30.4812 23.1732L29.7507 22.442L30.4812 23.1732Z" stroke="white" stroke-width="2" stroke-miterlimit="10" stroke-linecap="round"/>
</svg>
