<svg width="50" height="50" viewBox="0 0 50 50" fill="none" xmlns="http://www.w3.org/2000/svg">
<circle cx="25" cy="25" r="25" fill="#A7A9AB"/>
<path d="M27.125 38.8125V28.7188C27.125 28.2961 27.2929 27.8907 27.5918 27.5918C27.8907 27.2929 28.2961 27.125 28.7188 27.125H32.9688C33.3914 27.125 33.7968 27.2929 34.0957 27.5918C34.3946 27.8907 34.5625 28.2961 34.5625 28.7188V38.8125M37.75 37.75V23.9375V37.75ZM12.25 23.9375V37.75V23.9375ZM33.3984 11.1875H16.6016C15.1546 11.1875 13.8477 11.9844 13.2859 13.2102L10.4105 19.4883C9.44234 21.6007 11.05 23.9939 13.5443 24.0703H13.6771C15.7622 24.0703 17.4523 22.3982 17.4523 20.6019C17.4523 22.3949 19.143 24.0703 21.2281 24.0703C23.3133 24.0703 25 22.5177 25 20.6019C25 22.3949 26.69 24.0703 28.7752 24.0703C30.8604 24.0703 32.5511 22.5177 32.5511 20.6019C32.5511 22.5177 34.2411 24.0703 36.3262 24.0703H36.4557C38.95 23.9926 40.5577 21.5993 39.5895 19.4883L36.7141 13.2102C36.1523 11.9844 34.8454 11.1875 33.3984 11.1875ZM10.125 38.8125H39.875H10.125ZM17.0312 27.125H22.3438C22.7664 27.125 23.1718 27.2929 23.4707 27.5918C23.7696 27.8907 23.9375 28.2961 23.9375 28.7188V34.5625H15.4375V28.7188C15.4375 28.2961 15.6054 27.8907 15.9043 27.5918C16.2032 27.2929 16.6086 27.125 17.0312 27.125Z" stroke="white" stroke-linecap="round" stroke-linejoin="round"/>
</svg>
