<svg width="50" height="50" viewBox="0 0 50 50" fill="none" xmlns="http://www.w3.org/2000/svg">
<circle cx="25" cy="25" r="25" fill="#A7A9AB"/>
<path d="M18.625 30.3125V11.1875L20.75 12.25L22.875 11.1875L24.996 12.25L27.1456 11.1875L29.25 12.25L31.3611 11.1875L33.4814 12.25L35.625 11.1875L37.7507 12.25L39.875 11.1875V26.0625" stroke="white" stroke-width="2" stroke-linejoin="round"/>
<path d="M39.875 26.0625V33.5C39.875 34.909 39.3153 36.2602 38.319 37.2565C37.3227 38.2528 35.9714 38.8125 34.5625 38.8125V38.8125C33.1535 38.8125 31.8023 38.2528 30.806 37.2565C29.8097 36.2602 29.25 34.909 29.25 33.5V30.3125H11.1875C11.0476 30.3113 10.9089 30.3379 10.7794 30.3909C10.6499 30.4438 10.5323 30.522 10.4334 30.6209C10.3345 30.7198 10.2563 30.8375 10.2033 30.9669C10.1504 31.0964 10.1237 31.2351 10.125 31.375C10.125 35.625 10.5726 38.8125 15.4375 38.8125H34.5625" stroke="white" stroke-width="2" stroke-linejoin="round"/>
<path d="M27.125 22.875H35.625M22.875 17.5625H35.625H22.875Z" stroke="white" stroke-width="2" stroke-linecap="round" stroke-linejoin="round"/>
</svg>
