<svg width="40" height="40" viewBox="0 0 40 40" fill="none" xmlns="http://www.w3.org/2000/svg">
<circle cx="20" cy="20" r="20" fill="#504589"/>
<path d="M28 27.5V11.375C28 11.1288 27.9515 10.885 27.8573 10.6575C27.763 10.43 27.6249 10.2233 27.4508 10.0492C27.2767 9.87506 27.07 9.73695 26.8425 9.64273C26.615 9.5485 26.3712 9.5 26.125 9.5H13.375C12.8777 9.5 12.4008 9.69754 12.0492 10.0492C11.6975 10.4008 11.5 10.8777 11.5 11.375V27.875C11.5 28.5712 11.7766 29.2389 12.2688 29.7312C12.7611 30.2234 13.4288 30.5 14.125 30.5H30.1961C30.2032 30.5001 30.2102 30.4987 30.2168 30.496C30.2234 30.4933 30.2293 30.4894 30.2344 30.4844C30.2394 30.4793 30.2433 30.4734 30.246 30.4668C30.2487 30.4602 30.2501 30.4532 30.25 30.4461C30.25 30.4343 30.2461 30.4229 30.2388 30.4135C30.2316 30.4042 30.2216 30.3975 30.2102 30.3945C29.5757 30.2205 29.0159 29.8431 28.6167 29.3202C28.2174 28.7973 28.0008 28.1579 28 27.5ZM14.5 14C14.5 13.8011 14.579 13.6103 14.7197 13.4697C14.8603 13.329 15.0511 13.25 15.25 13.25H18.25C18.4489 13.25 18.6397 13.329 18.7803 13.4697C18.921 13.6103 19 13.8011 19 14V17C19 17.1989 18.921 17.3897 18.7803 17.5303C18.6397 17.671 18.4489 17.75 18.25 17.75H15.25C15.0511 17.75 14.8603 17.671 14.7197 17.5303C14.579 17.3897 14.5 17.1989 14.5 17V14ZM24.25 26.75H15.2711C14.8675 26.75 14.5211 26.4397 14.5009 26.0361C14.4961 25.9347 14.5118 25.8333 14.5472 25.7382C14.5827 25.6431 14.6371 25.5561 14.7071 25.4826C14.7771 25.4091 14.8614 25.3506 14.9547 25.3106C15.048 25.2706 15.1485 25.25 15.25 25.25H24.2289C24.6325 25.25 24.9789 25.5603 24.9991 25.9639C25.0039 26.0653 24.9882 26.1667 24.9528 26.2618C24.9173 26.3569 24.8629 26.4439 24.7929 26.5174C24.7229 26.5909 24.6386 26.6494 24.5453 26.6894C24.452 26.7294 24.3515 26.75 24.25 26.75ZM24.25 23.75H15.2711C14.8675 23.75 14.5211 23.4397 14.5009 23.0361C14.4961 22.9347 14.5118 22.8333 14.5472 22.7382C14.5827 22.6431 14.6371 22.5561 14.7071 22.4826C14.7771 22.4091 14.8614 22.3506 14.9547 22.3106C15.048 22.2706 15.1485 22.25 15.25 22.25H24.2289C24.6325 22.25 24.9789 22.5603 24.9991 22.9639C25.0039 23.0653 24.9882 23.1667 24.9528 23.2618C24.9173 23.3569 24.8629 23.4439 24.7929 23.5174C24.7229 23.5909 24.6386 23.6494 24.5453 23.6894C24.452 23.7294 24.3515 23.75 24.25 23.75ZM24.25 20.75H15.2711C14.8675 20.75 14.5211 20.4397 14.5009 20.0361C14.4961 19.9347 14.5118 19.8333 14.5472 19.7382C14.5827 19.6431 14.6371 19.5561 14.7071 19.4826C14.7771 19.4091 14.8614 19.3506 14.9547 19.3106C15.048 19.2706 15.1485 19.25 15.25 19.25H24.2289C24.6325 19.25 24.9789 19.5603 24.9991 19.9639C25.0039 20.0653 24.9882 20.1667 24.9528 20.2618C24.9173 20.3569 24.8629 20.4439 24.7929 20.5174C24.7229 20.5909 24.6386 20.6494 24.5453 20.6894C24.452 20.7294 24.3515 20.75 24.25 20.75ZM24.25 17.75H21.2711C20.8675 17.75 20.5211 17.4397 20.5009 17.0361C20.4961 16.9347 20.5118 16.8333 20.5472 16.7382C20.5827 16.6431 20.6371 16.5561 20.7071 16.4826C20.7771 16.4091 20.8614 16.3506 20.9547 16.3106C21.048 16.2706 21.1485 16.25 21.25 16.25H24.2289C24.6325 16.25 24.9789 16.5603 24.9991 16.9639C25.0039 17.0653 24.9882 17.1667 24.9528 17.2618C24.9173 17.3569 24.8629 17.4439 24.7929 17.5174C24.7229 17.5909 24.6386 17.6494 24.5453 17.6894C24.452 17.7294 24.3515 17.75 24.25 17.75ZM24.25 14.75H21.2711C20.8675 14.75 20.5211 14.4397 20.5009 14.0361C20.4961 13.9347 20.5118 13.8333 20.5472 13.7382C20.5827 13.6431 20.6371 13.5561 20.7071 13.4826C20.7771 13.4091 20.8614 13.3506 20.9547 13.3106C21.048 13.2706 21.1485 13.25 21.25 13.25H24.2289C24.6325 13.25 24.9789 13.5603 24.9991 13.9639C25.0039 14.0653 24.9882 14.1667 24.9528 14.2618C24.9173 14.3569 24.8629 14.4439 24.7929 14.5174C24.7229 14.5909 24.6386 14.6494 24.5453 14.6894C24.452 14.7294 24.3515 14.75 24.25 14.75Z" fill="white"/>
</svg>
