<svg width="40" height="40" viewBox="0 0 40 40" fill="none" xmlns="http://www.w3.org/2000/svg">
<circle cx="20" cy="20" r="20" fill="#504589"/>
<path d="M28.25 16.25H23V11C23 10.4033 22.7629 9.83097 22.341 9.40901C21.919 8.98705 21.3467 8.75 20.75 8.75H11.75C11.1533 8.75 10.581 8.98705 10.159 9.40901C9.73705 9.83097 9.5 10.4033 9.5 11V30.5C9.5 30.6989 9.57902 30.8897 9.71967 31.0303C9.86032 31.171 10.0511 31.25 10.25 31.25H15.125C15.2245 31.25 15.3198 31.2105 15.3902 31.1402C15.4605 31.0698 15.5 30.9745 15.5 30.875V27.5211C15.5 27.1175 15.8103 26.7711 16.2139 26.7509C16.3153 26.7461 16.4167 26.7618 16.5118 26.7972C16.6069 26.8327 16.6939 26.8871 16.7674 26.9571C16.8409 27.0271 16.8994 27.1114 16.9394 27.2047C16.9794 27.298 17 27.3985 17 27.5V30.875C17 30.9745 17.0395 31.0698 17.1098 31.1402C17.1802 31.2105 17.2755 31.25 17.375 31.25H29.75C29.9489 31.25 30.1397 31.171 30.2803 31.0303C30.421 30.8897 30.5 30.6989 30.5 30.5V18.5C30.5 17.9033 30.2629 17.331 29.841 16.909C29.419 16.4871 28.8467 16.25 28.25 16.25ZM12.5975 28.2439C12.4422 28.2642 12.2844 28.2354 12.1463 28.1615C12.0082 28.0875 11.8967 27.9722 11.8274 27.8317C11.7582 27.6911 11.7347 27.5325 11.7603 27.3779C11.7858 27.2234 11.8591 27.0807 11.9699 26.9699C12.0807 26.8591 12.2234 26.7858 12.3779 26.7603C12.5325 26.7347 12.6911 26.7582 12.8317 26.8274C12.9722 26.8967 13.0875 27.0082 13.1615 27.1463C13.2354 27.2844 13.2642 27.4422 13.2439 27.5975C13.2225 27.7614 13.1475 27.9137 13.0306 28.0306C12.9137 28.1475 12.7614 28.2225 12.5975 28.2439ZM12.5975 24.4939C12.4422 24.5142 12.2844 24.4854 12.1463 24.4115C12.0082 24.3375 11.8967 24.2222 11.8274 24.0817C11.7582 23.9411 11.7347 23.7825 11.7603 23.6279C11.7858 23.4734 11.8591 23.3307 11.9699 23.2199C12.0807 23.1091 12.2234 23.0358 12.3779 23.0103C12.5325 22.9847 12.6911 23.0082 12.8317 23.0774C12.9722 23.1467 13.0875 23.2582 13.1615 23.3963C13.2354 23.5344 13.2642 23.6922 13.2439 23.8475C13.2225 24.0114 13.1475 24.1637 13.0306 24.2806C12.9137 24.3975 12.7614 24.4725 12.5975 24.4939ZM12.5975 20.7439C12.4422 20.7642 12.2844 20.7354 12.1463 20.6615C12.0082 20.5875 11.8967 20.4722 11.8274 20.3317C11.7582 20.1911 11.7347 20.0325 11.7603 19.8779C11.7858 19.7234 11.8591 19.5807 11.9699 19.4699C12.0807 19.3591 12.2234 19.2858 12.3779 19.2603C12.5325 19.2347 12.6911 19.2582 12.8317 19.3274C12.9722 19.3967 13.0875 19.5082 13.1615 19.6463C13.2354 19.7844 13.2642 19.9422 13.2439 20.0975C13.2225 20.2614 13.1475 20.4137 13.0306 20.5306C12.9137 20.6475 12.7614 20.7225 12.5975 20.7439ZM12.5975 16.9939C12.4422 17.0142 12.2844 16.9854 12.1463 16.9115C12.0082 16.8375 11.8967 16.7222 11.8274 16.5817C11.7582 16.4411 11.7347 16.2825 11.7603 16.1279C11.7858 15.9734 11.8591 15.8307 11.9699 15.7199C12.0807 15.6091 12.2234 15.5358 12.3779 15.5103C12.5325 15.4847 12.6911 15.5082 12.8317 15.5774C12.9722 15.6467 13.0875 15.7582 13.1615 15.8963C13.2354 16.0344 13.2642 16.1922 13.2439 16.3475C13.2225 16.5114 13.1475 16.6637 13.0306 16.7806C12.9137 16.8975 12.7614 16.9725 12.5975 16.9939ZM12.5975 13.2439C12.4422 13.2642 12.2844 13.2354 12.1463 13.1615C12.0082 13.0875 11.8967 12.9722 11.8274 12.8317C11.7582 12.6911 11.7347 12.5325 11.7603 12.3779C11.7858 12.2234 11.8591 12.0807 11.9699 11.9699C12.0807 11.8591 12.2234 11.7858 12.3779 11.7603C12.5325 11.7347 12.6911 11.7582 12.8317 11.8274C12.9722 11.8967 13.0875 12.0082 13.1615 12.1463C13.2354 12.2844 13.2642 12.4422 13.2439 12.5975C13.2225 12.7614 13.1475 12.9137 13.0306 13.0306C12.9137 13.1475 12.7614 13.2225 12.5975 13.2439ZM16.3475 24.4939C16.1922 24.5142 16.0344 24.4854 15.8963 24.4115C15.7582 24.3375 15.6467 24.2222 15.5774 24.0817C15.5082 23.9411 15.4847 23.7825 15.5103 23.6279C15.5358 23.4734 15.6091 23.3307 15.7199 23.2199C15.8307 23.1091 15.9734 23.0358 16.1279 23.0103C16.2825 22.9847 16.4411 23.0082 16.5817 23.0774C16.7222 23.1467 16.8375 23.2582 16.9115 23.3963C16.9854 23.5344 17.0142 23.6922 16.9939 23.8475C16.9725 24.0114 16.8975 24.1637 16.7806 24.2806C16.6637 24.3975 16.5114 24.4725 16.3475 24.4939ZM16.3475 20.7439C16.1922 20.7642 16.0344 20.7354 15.8963 20.6615C15.7582 20.5875 15.6467 20.4722 15.5774 20.3317C15.5082 20.1911 15.4847 20.0325 15.5103 19.8779C15.5358 19.7234 15.6091 19.5807 15.7199 19.4699C15.8307 19.3591 15.9734 19.2858 16.1279 19.2603C16.2825 19.2347 16.4411 19.2582 16.5817 19.3274C16.7222 19.3967 16.8375 19.5082 16.9115 19.6463C16.9854 19.7844 17.0142 19.9422 16.9939 20.0975C16.9725 20.2614 16.8975 20.4137 16.7806 20.5306C16.6637 20.6475 16.5114 20.7225 16.3475 20.7439ZM16.3475 16.9939C16.1922 17.0142 16.0344 16.9854 15.8963 16.9115C15.7582 16.8375 15.6467 16.7222 15.5774 16.5817C15.5082 16.4411 15.4847 16.2825 15.5103 16.1279C15.5358 15.9734 15.6091 15.8307 15.7199 15.7199C15.8307 15.6091 15.9734 15.5358 16.1279 15.5103C16.2825 15.4847 16.4411 15.5082 16.5817 15.5774C16.7222 15.6467 16.8375 15.7582 16.9115 15.8963C16.9854 16.0344 17.0142 16.1922 16.9939 16.3475C16.9725 16.5114 16.8975 16.6637 16.7806 16.7806C16.6637 16.8975 16.5114 16.9725 16.3475 16.9939ZM16.3475 13.2439C16.1922 13.2642 16.0344 13.2354 15.8963 13.1615C15.7582 13.0875 15.6467 12.9722 15.5774 12.8317C15.5082 12.6911 15.4847 12.5325 15.5103 12.3779C15.5358 12.2234 15.6091 12.0807 15.7199 11.9699C15.8307 11.8591 15.9734 11.7858 16.1279 11.7603C16.2825 11.7347 16.4411 11.7582 16.5817 11.8274C16.7222 11.8967 16.8375 12.0082 16.9115 12.1463C16.9854 12.2844 17.0142 12.4422 16.9939 12.5975C16.9725 12.7614 16.8975 12.9137 16.7806 13.0306C16.6637 13.1475 16.5114 13.2225 16.3475 13.2439ZM20.0975 28.2439C19.9422 28.2642 19.7844 28.2354 19.6463 28.1615C19.5082 28.0875 19.3967 27.9722 19.3274 27.8317C19.2582 27.6911 19.2347 27.5325 19.2603 27.3779C19.2858 27.2234 19.3591 27.0807 19.4699 26.9699C19.5807 26.8591 19.7234 26.7858 19.8779 26.7603C20.0325 26.7347 20.1911 26.7582 20.3317 26.8274C20.4722 26.8967 20.5875 27.0082 20.6615 27.1463C20.7354 27.2844 20.7642 27.4422 20.7439 27.5975C20.7225 27.7614 20.6475 27.9137 20.5306 28.0306C20.4137 28.1475 20.2614 28.2225 20.0975 28.2439ZM20.0975 24.4939C19.9422 24.5142 19.7844 24.4854 19.6463 24.4115C19.5082 24.3375 19.3967 24.2222 19.3274 24.0817C19.2582 23.9411 19.2347 23.7825 19.2603 23.6279C19.2858 23.4734 19.3591 23.3307 19.4699 23.2199C19.5807 23.1091 19.7234 23.0358 19.8779 23.0103C20.0325 22.9847 20.1911 23.0082 20.3317 23.0774C20.4722 23.1467 20.5875 23.2582 20.6615 23.3963C20.7354 23.5344 20.7642 23.6922 20.7439 23.8475C20.7225 24.0114 20.6475 24.1637 20.5306 24.2806C20.4137 24.3975 20.2614 24.4725 20.0975 24.4939ZM20.0975 20.7439C19.9422 20.7642 19.7844 20.7354 19.6463 20.6615C19.5082 20.5875 19.3967 20.4722 19.3274 20.3317C19.2582 20.1911 19.2347 20.0325 19.2603 19.8779C19.2858 19.7234 19.3591 19.5807 19.4699 19.4699C19.5807 19.3591 19.7234 19.2858 19.8779 19.2603C20.0325 19.2347 20.1911 19.2582 20.3317 19.3274C20.4722 19.3967 20.5875 19.5082 20.6615 19.6463C20.7354 19.7844 20.7642 19.9422 20.7439 20.0975C20.7225 20.2614 20.6475 20.4137 20.5306 20.5306C20.4137 20.6475 20.2614 20.7225 20.0975 20.7439ZM20.0975 16.9939C19.9422 17.0142 19.7844 16.9854 19.6463 16.9115C19.5082 16.8375 19.3967 16.7222 19.3274 16.5817C19.2582 16.4411 19.2347 16.2825 19.2603 16.1279C19.2858 15.9734 19.3591 15.8307 19.4699 15.7199C19.5807 15.6091 19.7234 15.5358 19.8779 15.5103C20.0325 15.4847 20.1911 15.5082 20.3317 15.5774C20.4722 15.6467 20.5875 15.7582 20.6615 15.8963C20.7354 16.0344 20.7642 16.1922 20.7439 16.3475C20.7225 16.5114 20.6475 16.6637 20.5306 16.7806C20.4137 16.8975 20.2614 16.9725 20.0975 16.9939ZM20.0975 13.2439C19.9422 13.2642 19.7844 13.2354 19.6463 13.1615C19.5082 13.0875 19.3967 12.9722 19.3274 12.8317C19.2582 12.6911 19.2347 12.5325 19.2603 12.3779C19.2858 12.2234 19.3591 12.0807 19.4699 11.9699C19.5807 11.8591 19.7234 11.7858 19.8779 11.7603C20.0325 11.7347 20.1911 11.7582 20.3317 11.8274C20.4722 11.8967 20.5875 12.0082 20.6615 12.1463C20.7354 12.2844 20.7642 12.4422 20.7439 12.5975C20.7225 12.7614 20.6475 12.9137 20.5306 13.0306C20.4137 13.1475 20.2614 13.2225 20.0975 13.2439ZM28.8125 29.75H23V17.75H28.25C28.4489 17.75 28.6397 17.829 28.7803 17.9697C28.921 18.1103 29 18.3011 29 18.5V29.5625C29 29.6122 28.9802 29.6599 28.9451 29.6951C28.9099 29.7302 28.8622 29.75 28.8125 29.75Z" fill="white"/>
<path d="M26.75 26.75C26.6017 26.75 26.4567 26.794 26.3333 26.8764C26.21 26.9588 26.1139 27.076 26.0571 27.213C26.0003 27.35 25.9855 27.5008 26.0144 27.6463C26.0434 27.7918 26.1148 27.9255 26.2197 28.0303C26.3246 28.1352 26.4582 28.2067 26.6037 28.2356C26.7492 28.2645 26.9 28.2497 27.037 28.1929C27.1741 28.1362 27.2912 28.04 27.3736 27.9167C27.456 27.7934 27.5 27.6483 27.5 27.5C27.5 27.3011 27.421 27.1103 27.2803 26.9697C27.1397 26.829 26.9489 26.75 26.75 26.75ZM26.75 23C26.6017 23 26.4567 23.044 26.3333 23.1264C26.21 23.2088 26.1139 23.3259 26.0571 23.463C26.0003 23.6 25.9855 23.7508 26.0144 23.8963C26.0434 24.0418 26.1148 24.1754 26.2197 24.2803C26.3246 24.3852 26.4582 24.4567 26.6037 24.4856C26.7492 24.5145 26.9 24.4997 27.037 24.4429C27.1741 24.3861 27.2912 24.29 27.3736 24.1667C27.456 24.0433 27.5 23.8983 27.5 23.75C27.5 23.5511 27.421 23.3603 27.2803 23.2197C27.1397 23.079 26.9489 23 26.75 23ZM26.75 19.25C26.6017 19.25 26.4567 19.294 26.3333 19.3764C26.21 19.4588 26.1139 19.5759 26.0571 19.713C26.0003 19.85 25.9855 20.0008 26.0144 20.1463C26.0434 20.2918 26.1148 20.4254 26.2197 20.5303C26.3246 20.6352 26.4582 20.7067 26.6037 20.7356C26.7492 20.7645 26.9 20.7497 27.037 20.6929C27.1741 20.6361 27.2912 20.54 27.3736 20.4167C27.456 20.2933 27.5 20.1483 27.5 20C27.5 19.8011 27.421 19.6103 27.2803 19.4697C27.1397 19.329 26.9489 19.25 26.75 19.25ZM23.75 26.75C23.6017 26.75 23.4567 26.794 23.3333 26.8764C23.21 26.9588 23.1139 27.076 23.0571 27.213C23.0003 27.35 22.9855 27.5008 23.0144 27.6463C23.0434 27.7918 23.1148 27.9255 23.2197 28.0303C23.3246 28.1352 23.4582 28.2067 23.6037 28.2356C23.7492 28.2645 23.9 28.2497 24.037 28.1929C24.1741 28.1362 24.2912 28.04 24.3736 27.9167C24.456 27.7934 24.5 27.6483 24.5 27.5C24.5 27.3011 24.421 27.1103 24.2803 26.9697C24.1397 26.829 23.9489 26.75 23.75 26.75ZM23.75 23C23.6017 23 23.4567 23.044 23.3333 23.1264C23.21 23.2088 23.1139 23.3259 23.0571 23.463C23.0003 23.6 22.9855 23.7508 23.0144 23.8963C23.0434 24.0418 23.1148 24.1754 23.2197 24.2803C23.3246 24.3852 23.4582 24.4567 23.6037 24.4856C23.7492 24.5145 23.9 24.4997 24.037 24.4429C24.1741 24.3861 24.2912 24.29 24.3736 24.1667C24.456 24.0433 24.5 23.8983 24.5 23.75C24.5 23.5511 24.421 23.3603 24.2803 23.2197C24.1397 23.079 23.9489 23 23.75 23ZM23.75 19.25C23.6017 19.25 23.4567 19.294 23.3333 19.3764C23.21 19.4588 23.1139 19.5759 23.0571 19.713C23.0003 19.85 22.9855 20.0008 23.0144 20.1463C23.0434 20.2918 23.1148 20.4254 23.2197 20.5303C23.3246 20.6352 23.4582 20.7067 23.6037 20.7356C23.7492 20.7645 23.9 20.7497 24.037 20.6929C24.1741 20.6361 24.2912 20.54 24.3736 20.4167C24.456 20.2933 24.5 20.1483 24.5 20C24.5 19.8011 24.421 19.6103 24.2803 19.4697C24.1397 19.329 23.9489 19.25 23.75 19.25Z" fill="white"/>
</svg>
