<svg width="40" height="40" viewBox="0 0 40 40" fill="none" xmlns="http://www.w3.org/2000/svg">
<circle cx="20" cy="20" r="20" fill="#504589"/>
<path d="M24 19C25.66 19 26.99 17.66 26.99 16C26.99 14.34 25.66 13 24 13C22.34 13 21 14.34 21 16C21 17.66 22.34 19 24 19ZM16 19C17.66 19 18.99 17.66 18.99 16C18.99 14.34 17.66 13 16 13C14.34 13 13 14.34 13 16C13 17.66 14.34 19 16 19ZM16 21C13.67 21 9 22.17 9 24.5V27H23V24.5C23 22.17 18.33 21 16 21ZM24 21C23.71 21 23.38 21.02 23.03 21.05C24.19 21.89 25 23.02 25 24.5V27H31V24.5C31 22.17 26.33 21 24 21Z" fill="white"/>
</svg>
